<svg width="100%" viewBox="0 0 700 460" role="img" xmlns="http://www.w3.org/2000/svg" font-family="Inter, -apple-system, BlinkMacSystemFont, 'Segoe UI', Roboto, sans-serif">
<title>Десктоп-клиент Qeli — главный экран</title>
<desc>Слева бренд, поиск и список профилей; справа статус подключения, полоса метрик и журнал.</desc>
<rect x="0" y="0" width="700" height="460" rx="12" fill="#EEF2F8" stroke="#E0E6EF"/>

<g transform="translate(16,22) scale(0.2)">
<circle cx="54" cy="54" r="30" stroke="#2F7FE6" stroke-width="11" fill="none"/>
<line x1="72" y1="72" x2="96" y2="96" stroke="#2F7FE6" stroke-width="11" stroke-linecap="round"/>
<circle cx="98" cy="98" r="12" fill="#10B981"/>
<circle cx="98" cy="98" r="4.5" fill="#EEF2F8"/>
</g>
<text x="50" y="35" font-size="18" font-weight="700" fill="#1F2937">Qeli</text>
<text x="50" y="51" font-size="10.5" fill="#6B7A8D">Quick Easy Link IP</text>
<circle cx="246" cy="36" r="7" fill="none" stroke="#9AA7B8" stroke-width="1.5"/>

<rect x="16" y="66" width="246" height="38" rx="9" fill="#FFFFFF" stroke="#DCE3ED"/>
<circle cx="33" cy="85" r="5" fill="none" stroke="#9AA7B8" stroke-width="1.5"/>
<line x1="37" y1="89" x2="40" y2="92" stroke="#9AA7B8" stroke-width="1.5"/>
<text x="50" y="90" font-size="12" fill="#9AA7B8">Поиск профилей…</text>

<rect x="16" y="116" width="246" height="232" rx="12" fill="#FFFFFF" stroke="#E3E8EF"/>
<rect x="22" y="122" width="234" height="48" rx="9" fill="#EAF1FB"/>
<circle cx="42" cy="139" r="4.5" fill="#10B981"/>
<text x="42" y="154" text-anchor="middle" font-size="8.5" fill="#10B981">38 ms</text>
<text x="62" y="140" font-size="13.5" font-weight="600" fill="#1F2937">Client 1</text>
<text x="62" y="157" font-size="10.5" fill="#6B7A8D">192.0.2.10:443 · TCP · reality-tls</text>
<text x="250" y="144" text-anchor="end" font-size="14" fill="#9AA7B8">⋯</text>

<circle cx="42" cy="193" r="4.5" fill="#10B981"/>
<text x="42" y="208" text-anchor="middle" font-size="8.5" fill="#10B981">41 ms</text>
<text x="62" y="194" font-size="13.5" font-weight="600" fill="#1F2937">Tokyo UDP</text>
<text x="62" y="211" font-size="10.5" fill="#6B7A8D">198.51.100.7:8443 · UDP · fake-tls</text>
<text x="250" y="198" text-anchor="end" font-size="14" fill="#9AA7B8">⋯</text>

<circle cx="42" cy="247" r="4.5" fill="#10B981"/>
<text x="42" y="262" text-anchor="middle" font-size="8.5" fill="#10B981">37 ms</text>
<text x="62" y="248" font-size="13.5" font-weight="600" fill="#1F2937">Office obfs</text>
<text x="62" y="265" font-size="10.5" fill="#6B7A8D">203.0.113.42:443 · TCP · obfs</text>
<text x="250" y="252" text-anchor="end" font-size="14" fill="#9AA7B8">⋯</text>

<rect x="16" y="410" width="119" height="34" rx="9" fill="#2F7FE6"/>
<text x="75" y="432" text-anchor="middle" font-size="13" font-weight="600" fill="#FFFFFF">+ Новый</text>
<rect x="143" y="410" width="119" height="34" rx="9" fill="#FFFFFF" stroke="#DCE3ED"/>
<text x="202" y="432" text-anchor="middle" font-size="13" font-weight="500" fill="#1F2937">Импорт</text>

<rect x="278" y="22" width="406" height="92" rx="12" fill="#FFFFFF" stroke="#E3E8EF"/>
<circle cx="310" cy="68" r="23" fill="#E7F6EE"/>
<circle cx="310" cy="68" r="7" fill="#10B981"/>
<text x="346" y="63" font-size="20" font-weight="700" fill="#1F2937">Подключено</text>
<text x="346" y="84" font-size="12" fill="#6B7A8D">192.0.2.10:443 · TCP · reality-tls</text>
<rect x="568" y="49" width="102" height="36" rx="9" fill="#FFFFFF" stroke="#DCE3ED"/>
<text x="619" y="72" text-anchor="middle" font-size="13" font-weight="500" fill="#1F2937">Отключить</text>

<rect x="278" y="126" width="406" height="70" rx="12" fill="#FFFFFF" stroke="#E3E8EF"/>
<line x1="379" y1="138" x2="379" y2="184" stroke="#E7ECF3"/>
<line x1="480" y1="138" x2="480" y2="184" stroke="#E7ECF3"/>
<line x1="581" y1="138" x2="581" y2="184" stroke="#E7ECF3"/>
<text x="292" y="149" font-size="10.5" fill="#6B7A8D">↓ Приём</text>
<text x="292" y="170" font-size="15" font-weight="700" fill="#1F2937">4.2 Мбит/с</text>
<text x="292" y="186" font-size="10" fill="#9AA7B8">3.1 ГБ</text>
<text x="393" y="149" font-size="10.5" fill="#6B7A8D">↑ Отдача</text>
<text x="393" y="170" font-size="15" font-weight="700" fill="#1F2937">1.1 Мбит/с</text>
<text x="393" y="186" font-size="10" fill="#9AA7B8">820 МБ</text>
<text x="494" y="149" font-size="10.5" fill="#6B7A8D">Сессия</text>
<text x="494" y="170" font-size="15" font-weight="700" fill="#1F2937">14:23</text>
<text x="494" y="186" font-size="10" fill="#9AA7B8">reality-tls</text>
<text x="595" y="149" font-size="10.5" fill="#6B7A8D">IP туннеля</text>
<text x="595" y="170" font-size="14" font-weight="700" fill="#1F2937">10.9.0.2</text>

<rect x="278" y="210" width="406" height="234" rx="12" fill="#FFFFFF" stroke="#E3E8EF"/>
<text x="292" y="233" font-size="12" font-weight="600" fill="#6B7A8D">Журнал</text>
<text x="620" y="233" font-size="11" fill="#9AA7B8">v0.7.2</text>
<circle cx="668" cy="229" r="6" fill="none" stroke="#9AA7B8" stroke-width="1.2"/>
<text x="668" y="233" text-anchor="middle" font-size="9" fill="#9AA7B8">i</text>
<line x1="278" y1="245" x2="684" y2="245" stroke="#EEF2F7"/>
<text x="294" y="268" font-size="11" font-family="monospace" fill="#6B7A8D">[14:08:51] Подключение TCP 192.0.2.10:443…</text>
<text x="294" y="286" font-size="11" font-family="monospace" fill="#6B7A8D">[14:08:52] ClientHello отправлен (216 Б)</text>
<text x="294" y="304" font-size="11" font-family="monospace" fill="#10B981">[14:08:52] Идентичность сервера подтверждена [OK]</text>
<text x="294" y="322" font-size="11" font-family="monospace" fill="#10B981">[14:08:52] Auth OK, IP 10.9.0.2</text>
<text x="294" y="340" font-size="11" font-family="monospace" fill="#6B7A8D">[14:08:53] TUN готов, туннель запущен</text>
</svg>
