<svg width="100%" viewBox="0 0 700 460" role="img" xmlns="http://www.w3.org/2000/svg" font-family="Inter, -apple-system, BlinkMacSystemFont, 'Segoe UI', Roboto, sans-serif">
<title>Десктоп-клиент Qeli — главный экран</title>
<desc>Окно клиента: слева список профилей, справа статус соединения, метрики, график трафика и журнал.</desc>
<rect x="0" y="0" width="700" height="460" rx="12" fill="#EEF2F8" stroke="#E0E6EF"/>

<circle cx="37" cy="40" r="13" fill="#2D7FF9"/>
<text x="37" y="45" text-anchor="middle" font-size="15" font-weight="700" fill="#FFFFFF">Q</text>
<text x="58" y="36" font-size="16" font-weight="700" fill="#1F2937">Qeli</text>
<text x="58" y="51" font-size="10" fill="#5B6B82">Quick Easy Link IP</text>
<circle cx="256" cy="40" r="7" fill="none" stroke="#9AA7B8" stroke-width="1.5"/>

<rect x="16" y="66" width="256" height="32" rx="6" fill="#FFFFFF" stroke="#DCE3ED"/>
<text x="30" y="86" font-size="12" fill="#9AA7B8">Поиск профилей…</text>

<rect x="16" y="112" width="256" height="48" rx="8" fill="#FFFFFF" stroke="#2D7FF9" stroke-width="1.5"/>
<circle cx="34" cy="128" r="4" fill="#22C55E"/>
<text x="34" y="148" text-anchor="middle" font-size="8.5" fill="#8A97A8">38 ms</text>
<text x="54" y="131" font-size="13" font-weight="600" fill="#1F2937">Client 1</text>
<text x="54" y="147" font-size="10.5" fill="#6B7A8D">192.0.2.10:443 · TCP · reality-tls</text>
<text x="258" y="135" text-anchor="end" font-size="13" fill="#9AA7B8">···</text>

<rect x="16" y="170" width="256" height="48" rx="8" fill="#FFFFFF" stroke="#E3E8EF"/>
<circle cx="34" cy="186" r="4" fill="#22C55E"/>
<text x="34" y="206" text-anchor="middle" font-size="8.5" fill="#8A97A8">41 ms</text>
<text x="54" y="189" font-size="13" font-weight="600" fill="#1F2937">Tokyo UDP</text>
<text x="54" y="205" font-size="10.5" fill="#6B7A8D">198.51.100.7:8443 · UDP · fake-tls</text>
<text x="258" y="193" text-anchor="end" font-size="13" fill="#9AA7B8">···</text>

<rect x="16" y="228" width="256" height="48" rx="8" fill="#FFFFFF" stroke="#E3E8EF"/>
<circle cx="34" cy="244" r="4" fill="#22C55E"/>
<text x="34" y="264" text-anchor="middle" font-size="8.5" fill="#8A97A8">37 ms</text>
<text x="54" y="247" font-size="13" font-weight="600" fill="#1F2937">Office obfs</text>
<text x="54" y="263" font-size="10.5" fill="#6B7A8D">203.0.113.42:443 · TCP · obfs</text>
<text x="258" y="251" text-anchor="end" font-size="13" fill="#9AA7B8">···</text>

<rect x="16" y="410" width="120" height="34" rx="7" fill="#2D7FF9"/>
<text x="76" y="432" text-anchor="middle" font-size="13" font-weight="600" fill="#FFFFFF">Новый</text>
<rect x="146" y="410" width="126" height="34" rx="7" fill="#FFFFFF" stroke="#DCE3ED"/>
<text x="209" y="432" text-anchor="middle" font-size="13" font-weight="500" fill="#1F2937">Импорт</text>

<rect x="288" y="24" width="396" height="62" rx="8" fill="#FFFFFF" stroke="#E3E8EF"/>
<circle cx="310" cy="46" r="6" fill="#B6C0CE"/>
<text x="326" y="44" font-size="16" font-weight="700" fill="#1F2937">Отключено</text>
<text x="326" y="63" font-size="11" fill="#6B7A8D">192.0.2.10:443 · TCP · reality-tls</text>
<rect x="566" y="34" width="104" height="34" rx="7" fill="#2D7FF9"/>
<text x="618" y="56" text-anchor="middle" font-size="13" font-weight="600" fill="#FFFFFF">Подключить</text>

<rect x="288" y="102" width="93" height="58" rx="8" fill="#FFFFFF" stroke="#E3E8EF"/>
<text x="300" y="122" font-size="10" fill="#6B7A8D">↓ Приём</text>
<text x="334" y="146" text-anchor="middle" font-size="16" fill="#C2CCDA">—</text>
<rect x="389" y="102" width="93" height="58" rx="8" fill="#FFFFFF" stroke="#E3E8EF"/>
<text x="401" y="122" font-size="10" fill="#6B7A8D">↑ Отдача</text>
<text x="435" y="146" text-anchor="middle" font-size="16" fill="#C2CCDA">—</text>
<rect x="490" y="102" width="93" height="58" rx="8" fill="#FFFFFF" stroke="#E3E8EF"/>
<text x="502" y="122" font-size="10" fill="#6B7A8D">Сессия</text>
<text x="536" y="146" text-anchor="middle" font-size="16" fill="#C2CCDA">—</text>
<rect x="591" y="102" width="93" height="58" rx="8" fill="#FFFFFF" stroke="#E3E8EF"/>
<text x="603" y="122" font-size="10" fill="#6B7A8D">IP туннеля</text>
<text x="637" y="146" text-anchor="middle" font-size="16" fill="#C2CCDA">—</text>

<rect x="288" y="172" width="396" height="104" rx="8" fill="#FFFFFF" stroke="#E3E8EF"/>
<text x="302" y="193" font-size="12" font-weight="500" fill="#1F2937">Трафик</text>
<line x1="302" y1="214" x2="670" y2="214" stroke="#EEF2F7"/>
<line x1="302" y1="238" x2="670" y2="238" stroke="#EEF2F7"/>
<line x1="302" y1="262" x2="670" y2="262" stroke="#EEF2F7"/>
<text x="670" y="270" text-anchor="end" font-size="10" fill="#9AA7B8">60 с</text>

<rect x="288" y="288" width="396" height="140" rx="8" fill="#FFFFFF" stroke="#E3E8EF"/>
<text x="302" y="309" font-size="12" font-weight="500" fill="#1F2937">Журнал</text>

<text x="650" y="448" text-anchor="end" font-size="10" fill="#9AA7B8">v0.7.2</text>
<circle cx="668" cy="444" r="6" fill="none" stroke="#9AA7B8" stroke-width="1.2"/>
<text x="668" y="448" text-anchor="middle" font-size="9" fill="#9AA7B8">i</text>
</svg>
