<svg width="100%" viewBox="0 0 560 730" role="img" xmlns="http://www.w3.org/2000/svg" font-family="Inter, -apple-system, BlinkMacSystemFont, 'Segoe UI', Roboto, sans-serif">
<title>Десктоп-клиент Qeli — редактор профиля</title>
<desc>Форма профиля: режим, SNI, пиннинг ключа сервера, MTU, маршрутизация, DNS и кнопки сохранения.</desc>
<rect x="0" y="0" width="560" height="730" rx="12" fill="#EEF2F8" stroke="#E0E6EF"/>
<text x="22" y="42" font-size="18" font-weight="700" fill="#1F2937">Изменить профиль</text>
<text x="530" y="42" text-anchor="end" font-size="15" fill="#9AA7B8">&lt;/&gt;</text>

<text x="22" y="74" font-size="11" fill="#6B7A8D">Название</text>
<rect x="22" y="80" width="516" height="32" rx="8" fill="#FFFFFF" stroke="#DCE3ED"/>
<text x="34" y="101" font-size="12.5" fill="#1F2937">Client 1</text>

<text x="22" y="132" font-size="11" fill="#6B7A8D">Адрес сервера</text>
<rect x="22" y="138" width="372" height="32" rx="8" fill="#FFFFFF" stroke="#DCE3ED"/>
<text x="34" y="159" font-size="12.5" fill="#1F2937">192.0.2.10</text>
<text x="408" y="132" font-size="11" fill="#6B7A8D">Порт</text>
<rect x="408" y="138" width="130" height="32" rx="8" fill="#FFFFFF" stroke="#DCE3ED"/>
<text x="420" y="159" font-size="12.5" fill="#1F2937">443</text>

<text x="22" y="190" font-size="11" fill="#6B7A8D">Режим подключения</text>
<rect x="22" y="196" width="516" height="32" rx="8" fill="#FFFFFF" stroke="#DCE3ED"/>
<text x="34" y="217" font-size="12.5" fill="#1F2937">REALITY-TLS (TLS 1.3 · TCP)</text>
<text x="524" y="217" text-anchor="end" font-size="11" fill="#9AA7B8">▾</text>

<text x="22" y="248" font-size="11" fill="#6B7A8D">Логин</text>
<rect x="22" y="254" width="251" height="32" rx="8" fill="#FFFFFF" stroke="#DCE3ED"/>
<text x="34" y="275" font-size="12.5" fill="#1F2937">client1</text>
<text x="287" y="248" font-size="11" fill="#6B7A8D">Пароль</text>
<rect x="287" y="254" width="251" height="32" rx="8" fill="#FFFFFF" stroke="#DCE3ED"/>
<text x="299" y="276" font-size="14" fill="#1F2937">••••••••</text>

<text x="22" y="306" font-size="11" fill="#6B7A8D">SNI (маскировка домена)</text>
<rect x="22" y="312" width="516" height="32" rx="8" fill="#FFFFFF" stroke="#DCE3ED"/>
<text x="34" y="333" font-size="12.5" fill="#1F2937">www.microsoft.com</text>
<text x="524" y="333" text-anchor="end" font-size="11" fill="#9AA7B8">▾</text>

<text x="22" y="364" font-size="11" fill="#6B7A8D">Паддинг (маскировка размера)</text>
<rect x="22" y="370" width="251" height="32" rx="8" fill="#FFFFFF" stroke="#DCE3ED"/>
<text x="34" y="391" font-size="12.5" fill="#1F2937">Стандартный</text>
<text x="259" y="391" text-anchor="end" font-size="11" fill="#9AA7B8">▾</text>
<text x="287" y="364" font-size="11" fill="#6B7A8D">Heartbeat (keep-alive)</text>
<rect x="287" y="370" width="251" height="32" rx="8" fill="#FFFFFF" stroke="#DCE3ED"/>
<text x="299" y="391" font-size="12.5" fill="#1F2937">15 секунд</text>
<text x="524" y="391" text-anchor="end" font-size="11" fill="#9AA7B8">▾</text>

<text x="22" y="422" font-size="11" fill="#6B7A8D">Ключ сервера (пиннинг)</text>
<rect x="22" y="428" width="516" height="32" rx="8" fill="#FFFFFF" stroke="#DCE3ED"/>
<text x="34" y="449" font-size="12" font-family="monospace" fill="#1F2937">a1b2c3d4e5f60718293a4b5c6d7e8f90</text>

<text x="22" y="480" font-size="11" fill="#6B7A8D">REALITY short_id (hex)</text>
<rect x="22" y="486" width="516" height="32" rx="8" fill="#FFFFFF" stroke="#DCE3ED"/>
<text x="34" y="507" font-size="12" font-family="monospace" fill="#1F2937">0123456789abcdef</text>

<text x="22" y="538" font-size="11" fill="#6B7A8D">Маршрутизация</text>
<rect x="22" y="544" width="372" height="32" rx="8" fill="#FFFFFF" stroke="#DCE3ED"/>
<text x="34" y="565" font-size="12.5" fill="#1F2937">Весь трафик</text>
<text x="382" y="565" text-anchor="end" font-size="11" fill="#9AA7B8">▾</text>
<text x="408" y="538" font-size="11" fill="#6B7A8D">MTU</text>
<rect x="408" y="544" width="130" height="32" rx="8" fill="#FFFFFF" stroke="#DCE3ED"/>
<text x="420" y="565" font-size="12.5" fill="#1F2937">auto</text>

<text x="22" y="596" font-size="11" fill="#6B7A8D">DNS-серверы</text>
<rect x="22" y="602" width="516" height="32" rx="8" fill="#FFFFFF" stroke="#DCE3ED"/>
<text x="34" y="623" font-size="12.5" fill="#1F2937">1.1.1.1, 8.8.8.8</text>

<rect x="22" y="652" width="16" height="16" rx="3" fill="#FFFFFF" stroke="#B9C3D0"/>
<text x="46" y="665" font-size="12" fill="#1F2937">Маршрутизировать локальные сети (RFC1918) в туннель</text>

<rect x="306" y="684" width="110" height="36" rx="9" fill="#FFFFFF" stroke="#DCE3ED"/>
<text x="361" y="707" text-anchor="middle" font-size="13" font-weight="500" fill="#1F2937">Отмена</text>
<rect x="426" y="684" width="112" height="36" rx="9" fill="#2F7FE6"/>
<text x="482" y="707" text-anchor="middle" font-size="13" font-weight="600" fill="#FFFFFF">Сохранить</text>
</svg>
