<svg width="100%" viewBox="0 0 320 660" role="img" xmlns="http://www.w3.org/2000/svg" font-family="Inter, -apple-system, BlinkMacSystemFont, 'Segoe UI', Roboto, sans-serif">
<title>Android-клиент Qeli — экран подключения</title>
<desc>Тёмный экран: статус Connected, выданный IP, кнопка Disconnect и журнал рукопожатия.</desc>
<rect x="0" y="0" width="320" height="660" rx="16" fill="#0E1422"/>

<text x="16" y="23" font-size="11" fill="#C7CEDA">12:59</text>
<rect x="276" y="15" width="9" height="9" rx="1.5" fill="#9AA7B8"/>
<rect x="290" y="15" width="9" height="9" rx="1.5" fill="#9AA7B8"/>
<rect x="304" y="14" width="11" height="10" rx="2" fill="#9AA7B8"/>

<circle cx="30" cy="56" r="14" fill="#2D7FF9"/>
<text x="30" y="61" text-anchor="middle" font-size="15" font-weight="700" fill="#FFFFFF">Q</text>
<text x="52" y="52" font-size="16" font-weight="700" fill="#FFFFFF">Qeli</text>
<text x="52" y="68" font-size="10" fill="#4A9EFF">Quick Easy Link IP</text>

<text x="20" y="106" font-size="12" font-weight="600" fill="#FFFFFF">CONNECTION</text>
<line x1="16" y1="116" x2="150" y2="116" stroke="#2D7FF9" stroke-width="2"/>
<text x="226" y="106" font-size="12" font-weight="600" fill="#5B6678">PROFILES</text>

<rect x="16" y="130" width="288" height="80" rx="12" fill="#1A2233"/>
<circle cx="36" cy="160" r="6" fill="#22C55E"/>
<text x="52" y="166" font-size="17" font-weight="700" fill="#FFFFFF">Connected</text>
<text x="288" y="153" text-anchor="end" font-size="12" fill="#4A9EFF">IP 10.9.0.2</text>
<text x="36" y="192" font-size="11" fill="#9AA7B8">TUN ready, entering tunnel loop</text>

<rect x="16" y="224" width="288" height="72" rx="12" fill="#1A2233"/>
<text x="34" y="245" font-size="9" letter-spacing="0.5" fill="#6B7280">PROFILES</text>
<circle cx="39" cy="266" r="5" fill="#22C55E"/>
<text x="52" y="270" font-size="14" font-weight="700" fill="#FFFFFF">MaxObf (reality)</text>
<text x="34" y="287" font-size="10.5" fill="#9AA7B8">reachable · 455 ms</text>
<rect x="232" y="252" width="56" height="28" rx="6" fill="none" stroke="#2D7FF9"/>
<text x="260" y="270" text-anchor="middle" font-size="11" font-weight="600" fill="#4A9EFF">PING</text>

<rect x="16" y="312" width="288" height="48" rx="10" fill="#2D7FF9"/>
<text x="160" y="342" text-anchor="middle" font-size="15" font-weight="700" fill="#FFFFFF">DISCONNECT</text>

<rect x="16" y="376" width="288" height="266" rx="10" fill="#101725" stroke="#222B3C"/>
<text x="30" y="402" font-size="9.5" font-family="monospace" fill="#8A97A8">[12:58:51] Service started: TCP/fake-tls</text>
<text x="30" y="420" font-size="9.5" font-family="monospace" fill="#8A97A8">[12:58:51] Connecting TCP 192.0.2.10:443…</text>
<text x="30" y="438" font-size="9.5" font-family="monospace" fill="#8A97A8">[12:58:52] TCP connected</text>
<text x="30" y="456" font-size="9.5" font-family="monospace" fill="#8A97A8">[12:58:52] ClientHello sent (216B)</text>
<text x="30" y="474" font-size="9.5" font-family="monospace" fill="#8A97A8">[12:58:52] Handshake records received</text>
<text x="30" y="492" font-size="9.5" font-family="monospace" fill="#22C55E">[12:58:52] Server identity verified [OK]</text>
<text x="30" y="510" font-size="9.5" font-family="monospace" fill="#22C55E">[12:58:52] Auth OK, IP 10.9.0.2</text>
<text x="30" y="528" font-size="9.5" font-family="monospace" fill="#8A97A8">[12:58:53] TUN ready, entering tunnel loop</text>
</svg>
