<svg width="100%" viewBox="0 0 320 660" role="img" xmlns="http://www.w3.org/2000/svg" font-family="Inter, -apple-system, BlinkMacSystemFont, 'Segoe UI', Roboto, sans-serif">
<title>Android-клиент Qeli — экран подключения</title>
<desc>Светлый экран: сегментированные вкладки, круглое кольцо подключения, активный профиль и статистика сессии.</desc>
<defs>
<linearGradient id="ring" x1="0" y1="0" x2="1" y2="1">
<stop offset="0" stop-color="#4a9eff"/>
<stop offset="0.5" stop-color="#16c8b6"/>
<stop offset="1" stop-color="#00e676"/>
</linearGradient>
</defs>
<rect x="0" y="0" width="320" height="660" rx="18" fill="#F4F7FC"/>

<text x="16" y="23" font-size="11" fill="#1A2233">12:59</text>
<rect x="278" y="15" width="9" height="9" rx="1.5" fill="#6B7A90"/>
<rect x="292" y="15" width="9" height="9" rx="1.5" fill="#6B7A90"/>
<rect x="306" y="14" width="11" height="10" rx="2" fill="#6B7A90"/>

<g transform="translate(16,46) scale(0.27)">
<circle cx="54" cy="54" r="30" stroke="#2B7DD9" stroke-width="11" fill="none"/>
<line x1="72" y1="72" x2="96" y2="96" stroke="#2B7DD9" stroke-width="11" stroke-linecap="round"/>
<circle cx="98" cy="98" r="12" fill="#10B95C"/>
<circle cx="98" cy="98" r="4.5" fill="#F4F7FC"/>
</g>
<text x="72" y="66" font-size="22" font-weight="700" fill="#1A2233">Qeli</text>
<text x="72" y="84" font-size="11" fill="#2B7DD9">Quick Easy Link IP</text>
<path d="M298 56a9 9 0 1 0 8 12 7 7 0 0 1-8-12z" fill="none" stroke="#6B7A90" stroke-width="1.5"/>

<rect x="16" y="104" width="288" height="44" rx="16" fill="#EEF2FA" stroke="#E1E7F2"/>
<rect x="19" y="107" width="92" height="38" rx="13" fill="#2B7DD9"/>
<text x="65" y="130" text-anchor="middle" font-size="12" font-weight="600" fill="#FFFFFF">Connection</text>
<text x="160" y="130" text-anchor="middle" font-size="12" font-weight="500" fill="#6B7A90">Profiles</text>
<text x="256" y="130" text-anchor="middle" font-size="12" font-weight="500" fill="#6B7A90">Log</text>

<rect x="16" y="160" width="288" height="232" rx="24" fill="#FFFFFF" stroke="#E1E7F2"/>
<circle cx="160" cy="242" r="62" fill="none" stroke="url(#ring)" stroke-width="11" stroke-linecap="round"/>
<path d="M151 234 A14 14 0 1 0 169 234" fill="none" stroke="#1A2233" stroke-width="2.6" stroke-linecap="round"/>
<line x1="160" y1="222" x2="160" y2="240" stroke="#1A2233" stroke-width="2.6" stroke-linecap="round"/>
<text x="160" y="276" text-anchor="middle" font-size="10.5" letter-spacing="1" fill="#6B7A90">CONNECTED</text>

<circle cx="86" cy="344" r="6" fill="#10B95C"/>
<text x="100" y="350" font-size="19" font-weight="700" fill="#1A2233">Connected</text>
<text x="214" y="350" font-size="13" fill="#2B7DD9">10.9.0.2</text>

<rect x="16" y="404" width="288" height="72" rx="18" fill="#FFFFFF" stroke="#E1E7F2"/>
<circle cx="36" cy="440" r="5" fill="#10B95C"/>
<text x="52" y="427" font-size="9" letter-spacing="0.6" fill="#6B7A90">PROFILES</text>
<text x="52" y="446" font-size="16" font-weight="700" fill="#1A2233">MaxObf (reality)</text>
<text x="52" y="463" font-size="12" fill="#6B7A90">reachable · 455 ms</text>
<rect x="232" y="425" width="56" height="30" rx="12" fill="none" stroke="#2B7DD9"/>
<text x="260" y="444" text-anchor="middle" font-size="12" font-weight="600" fill="#2B7DD9">Ping</text>

<rect x="16" y="490" width="288" height="74" rx="18" fill="#FFFFFF" stroke="#E1E7F2"/>
<line x1="112" y1="508" x2="112" y2="546" stroke="#E1E7F2"/>
<line x1="208" y1="508" x2="208" y2="546" stroke="#E1E7F2"/>
<text x="64" y="518" text-anchor="middle" font-size="9.5" letter-spacing="0.5" fill="#6B7A90">UPTIME</text>
<text x="64" y="541" text-anchor="middle" font-size="15" font-weight="700" font-family="monospace" fill="#1A2233">00:14:23</text>
<text x="160" y="518" text-anchor="middle" font-size="9.5" letter-spacing="0.3" fill="#6B7A90">↓ DOWNLOAD</text>
<text x="160" y="541" text-anchor="middle" font-size="15" font-weight="700" font-family="monospace" fill="#10B95C">3.1 GB</text>
<text x="256" y="518" text-anchor="middle" font-size="9.5" letter-spacing="0.3" fill="#6B7A90">↑ UPLOAD</text>
<text x="256" y="541" text-anchor="middle" font-size="15" font-weight="700" font-family="monospace" fill="#2B7DD9">820 MB</text>

<rect x="128" y="636" width="64" height="5" rx="2.5" fill="#C7CEDA"/>
</svg>
