<svg width="1200" height="630" viewBox="0 0 1200 630" xmlns="http://www.w3.org/2000/svg">
  <defs>
    <pattern id="dots" width="26" height="26" patternUnits="userSpaceOnUse">
      <circle cx="2" cy="2" r="1.4" fill="#D8CFBE" opacity="0.55"/>
    </pattern>
  </defs>

  <rect width="1200" height="630" fill="#F1EBDF"/>
  <rect width="1200" height="630" fill="url(#dots)"/>

  <!-- ── header (centered) ─────────────────────────────────── -->
  <text x="600" y="82" text-anchor="middle" font-family="'Segoe UI',system-ui,sans-serif" font-size="16" font-weight="700" letter-spacing="3.5" fill="#C2552F">OPEN-SOURCE VPN · RUST</text>

  <text x="600" y="146" text-anchor="middle" font-family="'Segoe UI',system-ui,sans-serif" font-size="60" font-weight="800" fill="#2B2A28">Свой VPN на Rust</text>

  <rect x="572" y="168" width="56" height="5" rx="2.5" fill="#C2552F"/>

  <text x="600" y="212" text-anchor="middle" font-family="'Segoe UI',system-ui,sans-serif" font-size="25" font-weight="500" fill="#2B2A28">как я спорил с сетью, TLS и самим собой</text>

  <!-- ── layered wrapping (onion), concentric, centred at y=325 ── -->
  <!-- outer: masking wrapper -->
  <rect x="350" y="250" width="500" height="150" rx="75" fill="#C2552F" fill-opacity="0.06" stroke="#C2552F" stroke-width="1.8" stroke-dasharray="8 6"/>
  <text x="600" y="277" text-anchor="middle" font-family="'Segoe UI',system-ui,sans-serif" font-size="15" font-weight="700" fill="#C2552F">внешняя обёртка — маскировка под TLS / HTTPS</text>

  <!-- middle: real AEAD security -->
  <rect x="426" y="283" width="348" height="84" rx="42" fill="#F1EBDF" stroke="#2B2A28" stroke-width="2.2"/>
  <text x="600" y="305" text-anchor="middle" font-family="'Segoe UI',system-ui,sans-serif" font-size="14" font-weight="600" fill="#2B2A28">AEAD ChaCha20-Poly1305 · channel binding</text>

  <!-- inner: the data -->
  <rect x="503" y="308" width="194" height="34" rx="17" fill="#2B2A28"/>
  <rect x="541" y="318" width="14" height="14" rx="3.5" fill="#F1EBDF"/>
  <rect x="562" y="318" width="14" height="14" rx="3.5" fill="#C2552F"/>
  <rect x="583" y="318" width="14" height="14" rx="3.5" fill="#F1EBDF"/>
  <rect x="604" y="318" width="14" height="14" rx="3.5" fill="#C2552F"/>
  <rect x="625" y="318" width="14" height="14" rx="3.5" fill="#F1EBDF"/>
  <rect x="646" y="318" width="14" height="14" rx="3.5" fill="#C2552F"/>

  <!-- ── footer (centered) ─────────────────────────────────── -->
  <text x="600" y="448" text-anchor="middle" font-family="'Consolas','SF Mono',monospace" font-size="16" fill="#8A857B">plain · fake-tls · obfs · reality-tls · QUIC</text>
  <text x="600" y="498" text-anchor="middle" font-family="'Segoe UI',system-ui,sans-serif" font-size="17" fill="#8A857B">TLS 1.3 · пост-квант · 5 режимов маскировки · ~700 Мбит/с</text>
  <text x="600" y="546" text-anchor="middle" font-family="'Consolas','SF Mono',monospace" font-size="18" fill="#2B2A28">github.com/litvinovtd/qeli</text>
</svg>
