<svg width="1200" height="800" viewBox="0 0 1200 800" xmlns="http://www.w3.org/2000/svg">
  <defs>
    <pattern id="dots" width="26" height="26" patternUnits="userSpaceOnUse">
      <circle cx="2" cy="2" r="1.4" fill="#D8CFBE" opacity="0.55"/>
    </pattern>
  </defs>

  <!-- background -->
  <rect width="1200" height="800" fill="#F1EBDF"/>
  <rect width="1200" height="800" fill="url(#dots)"/>
  <rect x="22" y="22" width="1156" height="756" rx="16" fill="none" stroke="#D8CFBE" stroke-width="2"/>

  <!-- ── header (centered) ─────────────────────────────────── -->
  <text x="600" y="118" text-anchor="middle" font-family="'Segoe UI',system-ui,sans-serif" font-size="18" font-weight="700" letter-spacing="4" fill="#C2552F">OPEN-SOURCE VPN · RUST</text>

  <text x="600" y="205" text-anchor="middle" font-family="'Segoe UI',system-ui,sans-serif" font-size="76" font-weight="800" fill="#2B2A28">Свой VPN на Rust</text>

  <rect x="570" y="232" width="60" height="5" rx="2.5" fill="#C2552F"/>

  <text x="600" y="290" text-anchor="middle" font-family="'Segoe UI',system-ui,sans-serif" font-size="28" font-weight="500" fill="#2B2A28">как я спорил с сетью, TLS и самим собой</text>

  <!-- ── layers of wrapping (the "onion") ──────────────────── -->
  <!-- outer: the masking wrapper -->
  <rect x="318" y="358" width="564" height="196" rx="98" fill="#C2552F" fill-opacity="0.06" stroke="#C2552F" stroke-width="1.8" stroke-dasharray="8 6"/>
  <text x="600" y="392" text-anchor="middle" font-family="'Segoe UI',system-ui,sans-serif" font-size="17" font-weight="700" letter-spacing="0.5" fill="#C2552F">внешняя обёртка — маскировка под TLS / HTTPS</text>

  <!-- middle: the real AEAD security -->
  <rect x="396" y="398" width="408" height="116" rx="58" fill="#F1EBDF" stroke="#2B2A28" stroke-width="2.4"/>
  <text x="600" y="430" text-anchor="middle" font-family="'Segoe UI',system-ui,sans-serif" font-size="16" font-weight="600" fill="#2B2A28">AEAD ChaCha20-Poly1305 · channel binding</text>

  <!-- inner: the data -->
  <rect x="486" y="436" width="228" height="40" rx="20" fill="#2B2A28"/>
  <rect x="524" y="448" width="16" height="16" rx="4" fill="#F1EBDF"/>
  <rect x="550" y="448" width="16" height="16" rx="4" fill="#C2552F"/>
  <rect x="576" y="448" width="16" height="16" rx="4" fill="#F1EBDF"/>
  <rect x="602" y="448" width="16" height="16" rx="4" fill="#C2552F"/>
  <rect x="628" y="448" width="16" height="16" rx="4" fill="#F1EBDF"/>
  <rect x="654" y="448" width="16" height="16" rx="4" fill="#C2552F"/>

  <!-- modes under the onion -->
  <text x="600" y="600" text-anchor="middle" font-family="'Consolas','SF Mono',monospace" font-size="17" fill="#8A857B">plain · fake-tls · obfs · reality-tls · QUIC</text>

  <!-- ── footer (centered) ─────────────────────────────────── -->
  <text x="600" y="672" text-anchor="middle" font-family="'Segoe UI',system-ui,sans-serif" font-size="18" fill="#8A857B">TLS 1.3 · пост-квант · 5 режимов маскировки · ~700 Мбит/с</text>
  <text x="600" y="722" text-anchor="middle" font-family="'Consolas','SF Mono',monospace" font-size="19" fill="#2B2A28">github.com/litvinovtd/qeli</text>
</svg>
