<svg width="100%" viewBox="0 0 700 470" role="img" xmlns="http://www.w3.org/2000/svg" font-family="Inter, -apple-system, BlinkMacSystemFont, 'Segoe UI', Roboto, sans-serif">
<title>Веб-панель Qeli — дашборд</title>
<desc>Админ-панель: быстрый старт сервера выбором режима маскировки и таблица активных сессий.</desc>
<rect x="0" y="0" width="700" height="470" rx="12" fill="#0F1728"/>

<circle cx="34" cy="27" r="12" fill="#2D7FF9"/>
<text x="34" y="32" text-anchor="middle" font-size="13" font-weight="700" fill="#FFFFFF">Q</text>
<text x="54" y="32" font-size="15" font-weight="700" fill="#FFFFFF">Qeli</text>
<text x="150" y="32" font-size="12.5" font-weight="600" fill="#FFFFFF">Дашборд</text>
<line x1="150" y1="42" x2="212" y2="42" stroke="#2D7FF9" stroke-width="2"/>
<text x="232" y="32" font-size="12.5" fill="#7A8699">Пользователи</text>
<text x="348" y="32" font-size="12.5" fill="#7A8699">Сессии</text>
<text x="424" y="32" font-size="12.5" fill="#7A8699">Конфиг</text>
<text x="500" y="32" font-size="12.5" fill="#7A8699">Логи</text>
<text x="680" y="32" text-anchor="end" font-size="11" fill="#5B6678">v0.7.2</text>
<line x1="0" y1="50" x2="700" y2="50" stroke="#1E2940"/>

<rect x="20" y="64" width="660" height="150" rx="10" fill="#16223A" stroke="#25304A"/>
<text x="40" y="92" font-size="14" font-weight="700" fill="#FFFFFF">⚡ Быстрый старт — сервер в один клик</text>
<text x="40" y="112" font-size="11" fill="#8A97AD">Выберите режим маскировки — TUN, NAT, DNS, пул IP и обфускация настроятся сами.</text>

<rect x="40" y="126" width="150" height="72" rx="8" fill="#1B2840" stroke="#2A3A57"/>
<text x="54" y="150" font-size="13" font-weight="700" fill="#FFFFFF">reality-tls</text>
<rect x="54" y="160" width="58" height="16" rx="8" fill="#0E3A2A"/>
<text x="83" y="172" text-anchor="middle" font-size="9" fill="#00E676">flagship</text>
<rect x="120" y="160" width="34" height="16" rx="8" fill="#143052"/>
<text x="137" y="172" text-anchor="middle" font-size="9" fill="#4A9EFF">TCP</text>
<text x="54" y="190" font-size="10" fill="#8A97AD">настоящий TLS 1.3</text>

<rect x="196" y="126" width="150" height="72" rx="8" fill="#1B2840" stroke="#2A3A57"/>
<text x="210" y="150" font-size="13" font-weight="700" fill="#FFFFFF">fake-tls</text>
<rect x="210" y="160" width="34" height="16" rx="8" fill="#143052"/>
<text x="227" y="172" text-anchor="middle" font-size="9" fill="#4A9EFF">TCP</text>
<text x="210" y="190" font-size="10" fill="#8A97AD">мимикрия под TLS</text>

<rect x="352" y="126" width="150" height="72" rx="8" fill="#1B2840" stroke="#2A3A57"/>
<text x="366" y="150" font-size="13" font-weight="700" fill="#FFFFFF">obfs</text>
<rect x="366" y="160" width="34" height="16" rx="8" fill="#143052"/>
<text x="383" y="172" text-anchor="middle" font-size="9" fill="#4A9EFF">TCP</text>
<text x="366" y="190" font-size="10" fill="#8A97AD">ChaCha20 + WS</text>

<rect x="508" y="126" width="150" height="72" rx="8" fill="#1B2840" stroke="#2A3A57"/>
<text x="522" y="150" font-size="13" font-weight="700" fill="#FFFFFF">QUIC</text>
<rect x="522" y="160" width="34" height="16" rx="8" fill="#3A2E0E"/>
<text x="539" y="172" text-anchor="middle" font-size="9" fill="#F0A92B">UDP</text>
<text x="522" y="190" font-size="10" fill="#8A97AD">UDP-маскировка</text>

<rect x="20" y="228" width="660" height="222" rx="10" fill="#16223A" stroke="#25304A"/>
<text x="40" y="256" font-size="14" font-weight="700" fill="#FFFFFF">Активные сессии</text>
<rect x="160" y="244" width="22" height="17" rx="8" fill="#0E3A2A"/>
<text x="171" y="256" text-anchor="middle" font-size="10" fill="#00E676">3</text>

<text x="40" y="288" font-size="10.5" fill="#6B7689">Пользователь</text>
<text x="180" y="288" font-size="10.5" fill="#6B7689">Устройство</text>
<text x="320" y="288" font-size="10.5" fill="#6B7689">IP туннеля</text>
<text x="430" y="288" font-size="10.5" fill="#6B7689">Режим</text>
<text x="520" y="288" font-size="10.5" fill="#6B7689">↓ / ↑, Мбит</text>
<text x="630" y="288" font-size="10.5" fill="#6B7689">Подключён</text>
<line x1="40" y1="298" x2="660" y2="298" stroke="#243047"/>

<circle cx="44" cy="320" r="4" fill="#00E676"/>
<text x="56" y="324" font-size="11.5" fill="#E5EAF2">client1</text>
<text x="180" y="324" font-size="11.5" font-family="monospace" fill="#9AA7B8">a3f1… · phone</text>
<text x="320" y="324" font-size="11.5" fill="#E5EAF2">10.9.0.2</text>
<text x="430" y="324" font-size="11.5" fill="#4A9EFF">reality-tls</text>
<text x="520" y="324" font-size="11.5" fill="#E5EAF2">12.4 / 3.1</text>
<text x="630" y="324" font-size="11.5" fill="#9AA7B8">14 мин</text>
<line x1="40" y1="336" x2="660" y2="336" stroke="#1E2940"/>

<circle cx="44" cy="358" r="4" fill="#00E676"/>
<text x="56" y="362" font-size="11.5" fill="#E5EAF2">user02</text>
<text x="180" y="362" font-size="11.5" font-family="monospace" fill="#9AA7B8">7b2c… · laptop</text>
<text x="320" y="362" font-size="11.5" fill="#E5EAF2">10.9.0.3</text>
<text x="430" y="362" font-size="11.5" fill="#4A9EFF">fake-tls</text>
<text x="520" y="362" font-size="11.5" fill="#E5EAF2">0.8 / 0.2</text>
<text x="630" y="362" font-size="11.5" fill="#9AA7B8">2 ч</text>
<line x1="40" y1="374" x2="660" y2="374" stroke="#1E2940"/>

<circle cx="44" cy="396" r="4" fill="#00E676"/>
<text x="56" y="400" font-size="11.5" fill="#E5EAF2">office</text>
<text x="180" y="400" font-size="11.5" font-family="monospace" fill="#9AA7B8">e5d0… · router</text>
<text x="320" y="400" font-size="11.5" fill="#E5EAF2">10.9.0.4</text>
<text x="430" y="400" font-size="11.5" fill="#4A9EFF">obfs</text>
<text x="520" y="400" font-size="11.5" fill="#E5EAF2">5.0 / 1.2</text>
<text x="630" y="400" font-size="11.5" fill="#9AA7B8">1 д</text>
<line x1="40" y1="412" x2="660" y2="412" stroke="#1E2940"/>

<text x="40" y="434" font-size="10.5" fill="#5B6678">SIGHUP-reload · профили · выдача qeli:// и QR — на соседних вкладках</text>
</svg>
