<svg width="100%" viewBox="0 0 820 500" role="img" xmlns="http://www.w3.org/2000/svg" font-family="Inter, -apple-system, BlinkMacSystemFont, 'Segoe UI', Roboto, sans-serif">
<title>Веб-панель Qeli — дашборд</title>
<desc>Тёмная админ-панель: слева сайдбар (Dashboard/Users/Config/Client/Logs), справа stat-карточки и таблица подключённых клиентов.</desc>
<defs>
<pattern id="grid" width="52" height="52" patternUnits="userSpaceOnUse">
<path d="M52 0H0V52" fill="none" stroke="#4a9eff" stroke-opacity="0.05" stroke-width="1"/>
</pattern>
</defs>
<rect x="0" y="0" width="820" height="500" rx="12" fill="#080b14"/>
<rect x="224" y="60" width="596" height="440" fill="url(#grid)"/>

<rect x="0" y="0" width="224" height="500" fill="#0a0f1a"/>
<line x1="224" y1="0" x2="224" y2="500" stroke="#1b2740"/>

<g transform="translate(20,18) scale(0.2)">
<circle cx="54" cy="54" r="30" stroke="#4a9eff" stroke-width="11" fill="none"/>
<line x1="72" y1="72" x2="96" y2="96" stroke="#4a9eff" stroke-width="11" stroke-linecap="round"/>
<circle cx="98" cy="98" r="12" fill="#00e676"/>
<circle cx="98" cy="98" r="4.5" fill="#080b14"/>
</g>
<text x="52" y="30" font-size="14" font-weight="800" fill="#FFFFFF">Qeli VPN</text>
<text x="52" y="44" font-size="10" fill="#6b7a9b">v0.7.2</text>
<line x1="0" y1="60" x2="224" y2="60" stroke="#1b2740"/>

<rect x="12" y="78" width="200" height="34" rx="11" fill="#14223c"/>
<rect x="24" y="89" width="12" height="12" rx="2.5" fill="none" stroke="#6fb7ff" stroke-width="1.6"/>
<text x="46" y="99" font-size="13" font-weight="500" fill="#6fb7ff">Dashboard</text>

<circle cx="30" cy="135" r="3.4" fill="none" stroke="#93a2c0" stroke-width="1.6"/>
<path d="M24 144c0-4 12-4 12 0" fill="none" stroke="#93a2c0" stroke-width="1.6"/>
<text x="46" y="139" font-size="13" font-weight="500" fill="#93a2c0">Users</text>

<circle cx="30" cy="175" r="6" fill="none" stroke="#93a2c0" stroke-width="1.6"/>
<circle cx="30" cy="175" r="2" fill="#93a2c0"/>
<text x="46" y="179" font-size="13" font-weight="500" fill="#93a2c0">Config</text>

<path d="M26 211a4 4 0 015.6 0M30 215a4 4 0 015.6 0" fill="none" stroke="#93a2c0" stroke-width="1.6" stroke-linecap="round"/>
<text x="46" y="219" font-size="13" font-weight="500" fill="#93a2c0">Client</text>

<rect x="25" y="245" width="11" height="14" rx="1.5" fill="none" stroke="#93a2c0" stroke-width="1.6"/>
<line x1="28" y1="250" x2="33" y2="250" stroke="#93a2c0" stroke-width="1.4"/>
<line x1="28" y1="254" x2="33" y2="254" stroke="#93a2c0" stroke-width="1.4"/>
<text x="46" y="259" font-size="13" font-weight="500" fill="#93a2c0">Logs</text>

<line x1="12" y1="430" x2="212" y2="430" stroke="#1b2740"/>
<circle cx="26" cy="452" r="4" fill="#00e676"/>
<text x="40" y="456" font-size="12" fill="#6b7a9b">Server online</text>
<text x="24" y="480" font-size="12.5" font-weight="500" fill="#93a2c0">⎋  Log out</text>

<text x="248" y="37" font-size="16" font-weight="600" fill="#FFFFFF">Dashboard</text>
<text x="612" y="37" font-size="11.5" fill="#6b7a9b">Total clients: <tspan fill="#FFFFFF" font-weight="600">3</tspan></text>
<circle cx="718" cy="33" r="3" fill="#16c8b6"/>
<text x="728" y="37" font-size="11.5" fill="#6b7a9b">Auto-refresh <tspan fill="#FFFFFF" font-weight="600">10s</tspan></text>
<line x1="224" y1="60" x2="820" y2="60" stroke="#1b2740"/>

<g>
<rect x="248" y="84" width="128" height="74" rx="14" fill="#111a2e" stroke="#1f2a40"/>
<text x="266" y="124" font-size="28" font-weight="800" fill="#60a5fa">3</text>
<text x="266" y="143" font-size="9.5" letter-spacing="0.5" fill="#6b7a9b">CONNECTED CLIENTS</text>
</g>
<g>
<rect x="388" y="84" width="128" height="74" rx="14" fill="#111a2e" stroke="#1f2a40"/>
<text x="406" y="124" font-size="28" font-weight="800" fill="#FFFFFF">4</text>
<text x="406" y="143" font-size="9.5" letter-spacing="0.5" fill="#6b7a9b">ACTIVE PROFILES</text>
</g>
<g>
<rect x="528" y="84" width="128" height="74" rx="14" fill="#111a2e" stroke="#1f2a40"/>
<text x="546" y="124" font-size="24" font-weight="800" fill="#34d399">48.2 GB</text>
<text x="546" y="143" font-size="9.5" letter-spacing="0.5" fill="#6b7a9b">TOTAL SENT</text>
</g>
<g>
<rect x="668" y="84" width="128" height="74" rx="14" fill="#111a2e" stroke="#1f2a40"/>
<text x="686" y="124" font-size="24" font-weight="800" fill="#a78bfa">12.7 GB</text>
<text x="686" y="143" font-size="9.5" letter-spacing="0.5" fill="#6b7a9b">TOTAL RECEIVED</text>
</g>

<rect x="248" y="178" width="548" height="298" rx="16" fill="#111a2e" stroke="#1f2a40"/>
<text x="266" y="208" font-size="13" font-weight="600" fill="#FFFFFF">Connected Clients</text>
<rect x="700" y="194" width="80" height="24" rx="8" fill="#0d1322" stroke="#1f2a40"/>
<text x="740" y="210" text-anchor="middle" font-size="10.5" fill="#93a2c0">⟳ Refresh</text>
<line x1="248" y1="228" x2="796" y2="228" stroke="#1f2a40"/>

<text x="266" y="250" font-size="9.5" letter-spacing="0.5" fill="#6b7a9b">PROFILE</text>
<text x="372" y="250" font-size="9.5" letter-spacing="0.5" fill="#6b7a9b">USERNAME</text>
<text x="452" y="250" font-size="9.5" letter-spacing="0.5" fill="#6b7a9b">IP ADDRESS</text>
<text x="556" y="250" font-size="9.5" letter-spacing="0.5" fill="#6b7a9b">UPTIME</text>
<text x="624" y="250" font-size="9.5" letter-spacing="0.5" fill="#6b7a9b">↑ SENT</text>
<text x="684" y="250" font-size="9.5" letter-spacing="0.5" fill="#6b7a9b">↓ RECV</text>
<text x="780" y="250" text-anchor="end" font-size="9.5" letter-spacing="0.5" fill="#6b7a9b">ACTIONS</text>
<line x1="248" y1="260" x2="796" y2="260" stroke="#16203a"/>

<rect x="266" y="276" width="78" height="20" rx="10" fill="#14253f"/>
<text x="305" y="290" text-anchor="middle" font-size="10" font-weight="600" fill="#6fb7ff">reality-tls</text>
<text x="372" y="290" font-size="11.5" fill="#FFFFFF">client1</text>
<text x="452" y="290" font-size="11" font-family="monospace" fill="#cbd5e1">10.9.0.2</text>
<text x="556" y="290" font-size="11.5" fill="#cbd5e1">14m</text>
<text x="624" y="290" font-size="11.5" fill="#cbd5e1">3.1 GB</text>
<text x="684" y="290" font-size="11.5" fill="#cbd5e1">12.4 GB</text>
<text x="746" y="291" font-size="12" fill="#ffb020">⚡</text>
<text x="770" y="291" font-size="12" fill="#ff8794">✕</text>
<line x1="266" y1="306" x2="778" y2="306" stroke="#16203a"/>

<rect x="266" y="322" width="64" height="20" rx="10" fill="#14253f"/>
<text x="298" y="336" text-anchor="middle" font-size="10" font-weight="600" fill="#6fb7ff">fake-tls</text>
<text x="372" y="336" font-size="11.5" fill="#FFFFFF">user02</text>
<text x="452" y="336" font-size="11" font-family="monospace" fill="#cbd5e1">10.9.0.3</text>
<text x="556" y="336" font-size="11.5" fill="#cbd5e1">2h 03m</text>
<text x="624" y="336" font-size="11.5" fill="#cbd5e1">220 MB</text>
<text x="684" y="336" font-size="11.5" fill="#cbd5e1">880 MB</text>
<text x="746" y="337" font-size="12" fill="#ffb020">⚡</text>
<text x="770" y="337" font-size="12" fill="#ff8794">✕</text>
<line x1="266" y1="352" x2="778" y2="352" stroke="#16203a"/>

<rect x="266" y="368" width="52" height="20" rx="10" fill="#281f43"/>
<text x="292" y="382" text-anchor="middle" font-size="10" font-weight="600" fill="#c4b5fd">udp-quic</text>
<text x="372" y="382" font-size="11.5" fill="#FFFFFF">office</text>
<text x="452" y="382" font-size="11" font-family="monospace" fill="#cbd5e1">10.9.0.4</text>
<text x="556" y="382" font-size="11.5" fill="#cbd5e1">1d 04h</text>
<text x="624" y="382" font-size="11.5" fill="#cbd5e1">1.2 GB</text>
<text x="684" y="382" font-size="11.5" fill="#cbd5e1">5.0 GB</text>
<text x="746" y="383" font-size="12" fill="#ffb020">⚡</text>
<text x="770" y="383" font-size="12" fill="#ff8794">✕</text>

<text x="266" y="452" font-size="10.5" fill="#475569">SIGHUP-reload · выдача профилей через qeli:// и QR — на вкладке Users</text>
</svg>
